PathFileType	3	(X/Y/Z)	running_1__view1_aligned.trc
DataRate	CameraRate	NumFrames	NumMarkers	Units	OrigDataRate	OrigDataStartFrame	OrigNumFrames
100.0	100.0	9	19	mm	100.0	1824	6401
Frame#	Time	pelvis			neck			head			hip_left			hip_right			knee_left			knee_right			ankle_left			ankle_right			heel_left			heel_right			toe_left			toe_right			shoulder_left			shoulder_right			elbow_left			elbow_right			wrist_left			wrist_right			
		X1	Y1	Z1	X2	Y2	Z2	X3	Y3	Z3	X4	Y4	Z4	X5	Y5	Z5	X6	Y6	Z6	X7	Y7	Z7	X8	Y8	Z8	X9	Y9	Z9	X10	Y10	Z10	X11	Y11	Z11	X12	Y12	Z12	X13	Y13	Z13	X14	Y14	Z14	X15	Y15	Z15	X16	Y16	Z16	X17	Y17	Z17	X18	Y18	Z18	X19	Y19	Z19	
1824	18.23000	-5.960867	942.954911	177.732704	-41.922014	1486.685623	317.534773	-25.235446	1568.975827	461.620850	72.014068	944.251327	173.636315	-83.935801	941.658495	181.829094	103.898209	536.296904	303.208715	-121.831261	509.457738	241.978415	75.018725	249.697825	77.330695	-145.313703	170.681102	61.643543	67.163510	232.731014	31.102825	-146.227053	139.479806	18.088298	76.710211	114.713359	165.929044	-135.827052	72.513497	194.230443	122.288135	1489.133287	266.182391	-208.192236	1421.373484	282.341803	216.584199	1288.234914	147.828895	-284.980690	1166.255973	222.635873	177.436932	1103.504803	252.286263	-247.596984	1033.304386	414.177347
1825	18.24000	-4.042725	942.154364	176.338401	-39.473958	1485.641063	316.678199	-22.728152	1568.103520	460.767078	74.025828	943.470940	172.466182	-82.111244	940.837792	180.210588	105.407853	535.065734	308.206495	-121.477387	508.906961	241.211046	78.085516	244.241359	87.538272	-147.146845	174.812492	49.773887	70.677331	225.984479	41.737536	-148.081568	145.152235	5.052202	79.206161	113.167540	180.161707	-138.771764	71.384321	178.762967	124.716884	1487.516658	265.357671	-205.839736	1420.217850	281.550465	216.612506	1285.587639	146.751146	-281.889134	1164.027178	222.839795	178.390355	1100.365347	251.619315	-244.410671	1031.890046	414.990291
1826	18.25000	-2.124584	941.353816	174.944097	-37.025901	1484.596504	315.821624	-20.220859	1567.231214	459.913307	76.037587	942.690554	171.296048	-80.286686	940.017090	178.592082	106.917497	533.834564	313.204275	-121.123513	508.356183	240.443678	81.152308	238.784894	97.745849	-148.979986	178.943882	37.904231	74.191152	219.237943	52.372247	-149.936083	150.824663	-7.983893	81.702111	111.621722	194.394370	-141.716475	70.255145	163.295491	127.145632	1485.900030	264.532951	-203.487236	1419.062216	280.759128	216.640812	1282.940364	145.673398	-278.797578	1161.798383	223.043717	179.343778	1097.225892	250.952367	-241.224359	1030.475705	415.803234
1827	18.26000	-0.206442	940.553269	173.549793	-34.577845	1483.551944	314.965050	-17.713566	1566.358907	459.059535	78.049347	941.910167	170.125915	-78.462129	939.196387	176.973577	108.427141	532.603393	318.202055	-120.769639	507.805405	239.676309	84.219099	233.328428	107.953426	-150.813128	183.075272	26.034574	77.704973	212.491408	63.006958	-151.790599	156.497091	-21.019988	84.198061	110.075903	208.627034	-144.661187	69.125970	147.828015	129.574381	1484.283401	263.708231	-201.134735	1417.906583	279.967790	216.669119	1280.293089	144.595649	-275.706022	1159.569589	223.247639	180.297201	1094.086437	250.285418	-238.038046	1029.061364	416.616178
1828	18.27000	1.711699	939.752722	172.155489	-32.129788	1482.507384	314.108476	-15.206273	1565.486601	458.205764	80.061107	941.129781	168.955782	-76.637571	938.375685	175.355071	109.936785	531.372223	323.199834	-120.415765	507.254628	238.908940	87.285891	227.871962	118.161003	-152.646270	187.206662	14.164918	81.218794	205.744872	73.641669	-153.645114	162.169519	-34.056083	86.694011	108.530085	222.859697	-147.605899	67.996794	132.360539	132.003129	1482.666772	262.883511	-198.782235	1416.750949	279.176453	216.697425	1277.645814	143.517901	-272.614466	1157.340794	223.451561	181.250624	1090.946982	249.618470	-234.851733	1027.647024	417.429122
1829	18.28000	3.629841	938.952175	170.761186	-29.681731	1481.462825	313.251902	-12.698980	1564.614295	457.351993	82.072867	940.349395	167.785648	-74.813013	937.554982	173.736565	111.446429	530.141053	328.197614	-120.061891	506.703850	238.141572	90.352682	222.415496	128.368580	-154.479411	191.338052	2.295262	84.732615	198.998337	84.276380	-155.499629	167.841947	-47.092178	89.189961	106.984266	237.092360	-150.550611	66.867618	116.893062	134.431878	1481.050143	262.058791	-196.429735	1415.595315	278.385115	216.725732	1274.998539	142.440152	-269.522911	1155.111999	223.655482	182.204047	1087.807527	248.951522	-231.665421	1026.232683	418.242065
1830	18.29000	5.547983	938.151628	169.366882	-27.233675	1480.418265	312.395327	-10.191686	1563.741988	456.498221	84.084627	939.569008	166.615515	-72.988456	936.734279	172.118059	112.956073	528.909883	333.195394	-119.708018	506.153072	237.374203	93.419474	216.959030	138.576157	-156.312553	195.469442	-9.574394	88.246437	192.251801	94.911091	-157.354145	173.514376	-60.128273	91.685911	105.438448	251.325024	-153.495323	65.738442	101.425586	136.860626	1479.433515	261.234071	-194.077234	1414.439682	277.593778	216.754039	1272.351264	141.362404	-266.431355	1152.883204	223.859404	183.157470	1084.668071	248.284574	-228.479108	1024.818343	419.055009
1831	18.30000	7.466124	937.351081	167.972578	-24.785618	1479.373706	311.538753	-7.684393	1562.869682	455.644450	86.096387	938.788622	165.445382	-71.163898	935.913577	170.499554	114.465717	527.678713	338.193174	-119.354144	505.602295	236.606834	96.486265	211.502564	148.783734	-158.145695	199.600832	-21.444050	91.760258	185.505266	105.545802	-159.208660	179.186804	-73.164369	94.181861	103.892629	265.557687	-156.440035	64.609267	85.958110	139.289375	1477.816886	260.409351	-191.724734	1413.284048	276.802440	216.782345	1269.703989	140.284655	-263.339799	1150.654409	224.063326	184.110893	1081.528616	247.617626	-225.292795	1023.404002	419.867953
1832	18.31000	9.384266	936.550533	166.578275	-22.337561	1478.329146	310.682179	-5.177100	1561.997375	454.790678	88.108146	938.008236	164.275248	-69.339340	935.092874	168.881048	115.975360	526.447542	343.190953	-119.000270	505.051517	235.839466	99.553056	206.046098	158.991311	-159.978837	203.732222	-33.313706	95.274079	178.758730	116.180513	-161.063175	184.859232	-86.200464	96.677811	102.346811	279.790350	-159.384746	63.480091	70.490634	141.718124	1476.200257	259.584631	-189.372234	1412.128414	276.011103	216.810652	1267.056713	139.206907	-260.248243	1148.425614	224.267248	185.064316	1078.389161	246.950678	-222.106483	1021.989661	420.680896
